<svg width="16" height="16" viewBox="0 0 16 16" xmlns="http://www.w3.org/2000/svg" fill="currentColor">
  <path class="st0" d="M10.22,1l.35.14,3.28,3.3.15.36v2.2h-1v-1h-3.5l-.5-.5v-3.5H3v12h3v1h-3.5l-.5-.5V1.5l.5-.5h7.72ZM10,5h3l-3-3v3Z"/>
  <path class="st0" d="M10.44,6.7c.99.06,1.91.55,2.59,1.23.8.86,1.23,1.91,1.23,3.14,0,.99-.37,1.91-.99,2.71-.62.74-1.48,1.29-2.46,1.48-.99.18-1.97.06-2.83-.43s-1.54-1.23-1.91-2.16c-.37-.92-.43-1.97-.12-2.9.31-.99.86-1.79,1.72-2.34.8-.55,1.79-.8,2.77-.74ZM10.75,14.65c.8-.18,1.54-.62,2.09-1.29.49-.68.8-1.48.74-2.34,0-.99-.37-1.97-1.05-2.65-.62-.62-1.36-.99-2.22-1.05-.8-.06-1.66.12-2.34.62-.68.49-1.17,1.17-1.42,2.03-.25.8-.25,1.66.12,2.46.37.8.92,1.42,1.66,1.85.74.43,1.6.55,2.4.37Z"/>
</svg>  