<svg width="16" height="16" viewBox="0 0 16 16" xmlns="http://www.w3.org/2000/svg" fill="currentColor">
  <path class="st0" d="M8.6,1c1.6.1,3.1.9,4.2,2,1.3,1.4,2,3.1,2,5.1,0,1.6-.6,3.1-1.6,4.4-1,1.2-2.4,2.1-4,2.4-1.6.3-3.2.1-4.6-.7s-2.5-2-3.1-3.5c-.6-1.5-.7-3.2-.2-4.7.5-1.6,1.4-2.9,2.8-3.8,1.3-.9,2.9-1.3,4.5-1.2ZM9.1,13.9c1.3-.3,2.5-1,3.4-2.1.8-1.1,1.3-2.4,1.2-3.8,0-1.6-.6-3.2-1.7-4.3-1-1-2.2-1.6-3.6-1.7-1.3-.1-2.7.2-3.8,1-1.1.8-1.9,1.9-2.3,3.3-.4,1.3-.4,2.7.2,4,.6,1.3,1.5,2.3,2.7,3,1.2.7,2.6.9,3.9.6Z"/>
  <path class="st0" d="M5,5.5l.78-.42,3.5,2.5v.83l-3.5,2.5-.78-.42v-5ZM6,6.43v3.13l2.6-1.57-2.6-1.57Z"/>
  <path d="M9.59,4.83l.2-.5h.6l.2.5.5-.2.3.3-.2.5.5.2v.6l-.5.2.2.5-.3.3-.5-.2-.2.5h-.6l-.2-.5-.5.2-.3-.3.2-.5-.5-.2v-.6l.5-.2-.2-.5.3-.3.5.2ZM10.09,6.73c.4,0,.8-.4.8-.8s-.4-.8-.8-.8-.8.4-.8.8.4.8.8.8Z"/>
</svg>